<svg width="36" height="35" viewBox="0 0 36 35" fill="none" xmlns="http://www.w3.org/2000/svg">
<path d="M18.0455 35H17.9563C17.9563 26.67 17.2001 22.643 15.5065 21.9413C14.6093 21.569 13.4112 22.1511 11.8462 23.7178L11.7828 23.6544C13.3496 22.0877 13.9308 20.887 13.5594 19.9943C12.8577 18.2981 8.82772 17.5446 0.5 17.5446V17.4554C8.82951 17.4554 12.8577 16.7001 13.5594 15.0057C13.9308 14.1086 13.3496 12.9105 11.7828 11.3456L11.8462 11.2822C13.413 12.8498 14.6137 13.431 15.5065 13.0587C17.2028 12.357 17.9563 8.3273 17.9563 0H18.0455C18.0455 8.32997 18.8008 12.357 20.4944 13.0587C21.3872 13.431 22.5897 12.8498 24.1547 11.2822L24.2172 11.3456C22.6504 12.9123 22.0692 14.113 22.4406 15.0057C23.1423 16.7019 27.1723 17.4554 35.5 17.4554V17.5446C27.1705 17.5446 23.1423 18.2999 22.4406 19.9943C22.0692 20.887 22.6504 22.0895 24.2172 23.6544L24.1547 23.7178C22.587 22.1511 21.3872 21.5699 20.4944 21.9413C18.8044 22.643 18.0455 26.67 18.0455 35ZM14.9539 21.744C15.1563 21.7426 15.3569 21.7818 15.544 21.8592C17.0376 22.4769 17.817 25.5738 18.0045 31.7782C18.1911 25.5738 18.9713 22.4769 20.464 21.8592C21.23 21.5413 22.1933 21.8788 23.3941 22.8885C22.3844 21.6878 22.0478 20.7236 22.3647 19.9586C22.9834 18.465 26.0804 17.6848 32.2843 17.4964C26.0795 17.3099 22.9834 16.5296 22.3647 15.037C22.0478 14.271 22.3844 13.3069 23.3941 12.1062C22.1933 13.1158 21.23 13.4533 20.464 13.1364C18.9713 12.5177 18.1911 9.42088 18.0045 3.21647C17.817 9.42088 17.0376 12.5177 15.544 13.1364C14.778 13.4533 13.8147 13.1158 12.6139 12.1062C13.6237 13.3069 13.9602 14.271 13.6433 15.037C13.0246 16.5296 9.9285 17.3099 3.72378 17.4964C9.9285 17.683 13.0246 18.4632 13.6433 19.9568C13.9602 20.7218 13.6237 21.686 12.6139 22.8867C13.5246 22.1225 14.2959 21.744 14.9539 21.744Z" fill="black"/>
<path d="M18.0455 33.5832H17.9563C17.9563 25.9291 17.2626 22.2287 15.7065 21.5851C14.8834 21.2441 13.7844 21.7779 12.3452 23.217L12.2818 23.1536C13.721 21.7145 14.2549 20.6147 13.9138 19.7916C13.2692 18.2365 9.56872 17.5428 1.91504 17.5428V17.4536C9.56872 17.4536 13.2692 16.7599 13.9138 15.2048C14.2549 14.3817 13.721 13.2819 12.2818 11.8428L12.3452 11.7803C13.7844 13.2185 14.8842 13.7524 15.7065 13.4113C17.2661 12.765 17.9563 9.06736 17.9563 1.41406H18.0455C18.0455 9.06736 18.7383 12.7677 20.2944 13.4113C21.1175 13.7524 22.2174 13.2185 23.6557 11.7803L23.7191 11.8428C22.2799 13.2819 21.746 14.3817 22.0871 15.2048C22.7317 16.7599 26.4322 17.4536 34.0859 17.4536V17.5428C26.4322 17.5428 22.7317 18.2365 22.0871 19.7916C21.746 20.6147 22.2799 21.7145 23.7191 23.1536L23.6557 23.217C22.2201 21.7815 21.1211 21.2458 20.298 21.5851C18.7419 22.2278 18.0455 25.9291 18.0455 33.5832ZM15.1976 21.3967C15.384 21.3955 15.5688 21.4313 15.7413 21.5021C17.1055 22.0671 17.8223 24.8792 18.0009 30.5051C18.1795 24.881 18.8937 22.0671 20.2596 21.5021C20.9586 21.2128 21.8353 21.5146 22.9254 22.4233C22.0166 21.3324 21.7157 20.4594 22.005 19.7577C22.5736 18.3936 25.3859 17.675 31.0121 17.4964C25.3876 17.3179 22.5736 16.6037 22.0085 15.2369C21.7193 14.5388 22.0201 13.6622 22.929 12.5722C21.8389 13.4801 20.9649 13.7809 20.2632 13.4926C18.899 12.9275 18.1821 10.1154 18.0045 4.48948C17.8259 10.1136 17.1117 12.9275 15.7449 13.4926C15.0458 13.7818 14.1691 13.4801 13.0791 12.5722C13.9879 13.6622 14.2888 14.5362 13.9995 15.2369C13.4344 16.6037 10.6222 17.3179 4.99597 17.4964C10.6204 17.675 13.4344 18.3891 13.9995 19.7559C14.2888 20.454 13.9879 21.3307 13.0791 22.4216C13.9031 21.736 14.6057 21.3967 15.2012 21.3967H15.1976Z" fill="black"/>
<path d="M18.0455 32.1656H17.9562C17.9562 25.1881 17.3241 21.8154 15.9029 21.228C15.1547 20.9182 14.153 21.4065 12.8416 22.7153L12.7782 22.6528C14.0896 21.3414 14.5762 20.3406 14.2655 19.5916C13.679 18.1749 10.3052 17.5428 3.32825 17.5428V17.4536C10.3052 17.4536 13.679 16.8215 14.2655 15.4057C14.5762 14.6567 14.087 13.655 12.7782 12.3445L12.8416 12.2811C14.1521 13.5917 15.1538 14.0782 15.9029 13.7684C17.3197 13.181 17.9562 9.80831 17.9562 2.83081H18.0455C18.0455 9.80831 18.6767 13.181 20.0935 13.7684C20.8425 14.0782 21.8442 13.5899 23.1548 12.2811L23.2182 12.3445C21.9067 13.655 21.4202 14.6567 21.7308 15.4057C22.3174 16.8215 25.6911 17.4536 32.6681 17.4536V17.5428C25.6911 17.5428 22.3174 18.1749 21.7308 19.5916C21.4202 20.3397 21.9094 21.3414 23.2182 22.6528L23.1548 22.7153C21.8442 21.4048 20.8425 20.9182 20.0935 21.228C18.6803 21.8154 18.0455 25.1881 18.0455 32.1656ZM15.4484 21.0486C15.6187 21.0479 15.7874 21.0809 15.9448 21.1459C17.1813 21.6574 17.8348 24.1874 18.0044 29.2393C18.1732 24.1874 18.8267 21.6574 20.0631 21.1459C20.6943 20.8843 21.4844 21.1503 22.4656 21.9591C21.6567 20.9771 21.3943 20.188 21.6523 19.5568C22.1638 18.3213 24.693 17.6669 29.7461 17.4982C24.693 17.3295 22.1638 16.6751 21.6523 15.4396C21.3907 14.8084 21.6567 14.0175 22.4656 13.0373C21.4835 13.8461 20.6943 14.1085 20.0631 13.8506C18.8267 13.339 18.1732 10.8099 18.0044 5.75715C17.8348 10.8099 17.1813 13.339 15.9448 13.8506C15.3136 14.1121 14.5235 13.8506 13.5424 13.0373C14.3512 14.0193 14.6137 14.8084 14.3566 15.4396C13.8441 16.6751 11.3149 17.3295 6.26098 17.4964C11.3131 17.6651 13.8424 18.3195 14.3548 19.555C14.6155 20.1862 14.3494 20.9771 13.5406 21.9573C14.2807 21.3503 14.9119 21.0486 15.4484 21.0486Z" fill="black"/>
<path d="M18.0456 30.7489H17.9563C17.9563 24.4472 17.3858 21.4012 16.1083 20.8718C15.4334 20.5924 14.5299 21.0316 13.347 22.2109L13.2845 22.1475C14.4674 20.9647 14.9066 20.0621 14.6236 19.3872C14.0942 18.1088 11.0481 17.5393 4.74695 17.5393V17.45C11.0481 17.45 14.0942 16.8805 14.6236 15.6021C14.9039 14.9272 14.4647 14.0246 13.2845 12.8418L13.347 12.7784C14.5299 13.9613 15.4334 14.4005 16.1083 14.1175C17.3858 13.5881 17.9563 10.5466 17.9563 4.24132H18.0456C18.0456 10.5421 18.6152 13.5881 19.8927 14.1175C20.5677 14.3969 21.4711 13.9577 22.654 12.7784L22.7174 12.8418C21.5345 14.0246 21.0953 14.9272 21.3783 15.6021C21.9077 16.8805 24.9538 17.45 31.255 17.45V17.5393C24.9538 17.5393 21.9077 18.1088 21.3783 19.3872C21.0988 20.0621 21.5381 20.9647 22.7174 22.1475L22.654 22.2109C21.4711 21.028 20.5677 20.5888 19.8927 20.8718C18.6187 21.4012 18.0456 24.4472 18.0456 30.7489ZM15.6949 20.7013C15.8497 20.7007 16.003 20.7311 16.1458 20.7906C17.2537 21.2494 17.842 23.4982 18.0045 27.9814C18.1634 23.4982 18.7544 21.2494 19.8624 20.7906C20.4266 20.5567 21.1319 20.7906 22.005 21.4985C21.2953 20.6272 21.0631 19.922 21.297 19.356C21.7559 18.2481 24.0048 17.6598 28.4892 17.4973C24.0048 17.3384 21.7559 16.7465 21.297 15.6396C21.0631 15.0745 21.297 14.3701 22.005 13.497C21.1337 14.2112 20.4293 14.4389 19.8624 14.205C18.7544 13.7461 18.1661 11.4973 18.0045 7.01411C17.8447 11.4973 17.2537 13.7461 16.1458 14.205C15.5816 14.4389 14.8763 14.205 14.0031 13.497C14.7129 14.3692 14.945 15.0736 14.7111 15.6396C14.2522 16.7465 12.0034 17.3357 7.51899 17.4973C12.0034 17.6571 14.2522 18.2481 14.7111 19.356C14.945 19.9202 14.7111 20.6254 14.0031 21.4985C14.6584 20.9655 15.2182 20.7013 15.6949 20.7013Z" fill="black"/>
<path d="M18.0455 29.3312H17.9563C17.9563 23.7071 17.4483 20.9879 16.3082 20.5156C15.7083 20.2665 14.903 20.6584 13.8486 21.7136L13.7853 21.6503C14.8396 20.5951 15.2315 19.7907 14.9834 19.1899C14.5147 18.0508 11.7962 17.5429 6.17175 17.5429V17.4536C11.7962 17.4536 14.5155 16.9456 14.9878 15.8065C15.236 15.2057 14.8441 14.4014 13.7897 13.3462L13.8531 13.2828C14.9075 14.338 15.7127 14.7299 16.3127 14.4808C17.4519 14.0095 17.9563 11.2902 17.9563 5.66521H18.0455C18.0455 11.2893 18.5535 14.0095 19.6927 14.4808C20.2935 14.7299 21.0979 14.338 22.1532 13.2828L22.2157 13.3462C21.1613 14.4014 20.7694 15.2057 21.0176 15.8065C21.4898 16.9456 24.2092 17.4536 29.8345 17.4536V17.5429C24.2101 17.5429 21.4898 18.0508 21.0176 19.1899C20.7694 19.7907 21.1613 20.5951 22.2157 21.6503L22.1532 21.7136C21.0979 20.6584 20.2926 20.2665 19.6927 20.5156C18.5571 20.9879 18.0455 23.7062 18.0455 29.3312ZM15.9422 20.3531C16.0809 20.3525 16.2184 20.3795 16.3466 20.4326C17.3287 20.8379 17.8545 22.8099 18.0045 26.7298C18.1536 22.8099 18.6812 20.8379 19.6614 20.4326C20.1605 20.2255 20.7801 20.4237 21.5434 21.037C20.931 20.2728 20.7328 19.6532 20.939 19.1551C21.3488 18.1758 23.3129 17.6473 27.241 17.4964C23.32 17.3473 21.3488 16.8189 20.9426 15.8386C20.7363 15.3405 20.9345 14.721 21.5479 13.9568C20.7837 14.5701 20.1632 14.7674 19.665 14.5621C18.683 14.1559 18.1571 12.1839 18.008 8.26392C17.8581 12.1839 17.3304 14.1559 16.3502 14.5621C15.8511 14.7683 15.2315 14.5701 14.4682 13.9568C15.0807 14.721 15.2789 15.3405 15.0726 15.8386C14.6664 16.8206 12.6952 17.3473 8.77506 17.4964C12.6952 17.6455 14.6673 18.174 15.0726 19.1542C15.2789 19.6524 15.0807 20.2719 14.4682 21.0361C15.0342 20.5808 15.5235 20.3531 15.9422 20.3531Z" fill="black"/>
<path d="M18.0455 27.9145H17.9563C17.9563 23.0322 17.4965 20.5683 16.5091 20.1594C15.9824 19.9416 15.2762 20.2853 14.3495 21.2128L14.2861 21.1494C15.2128 20.2228 15.5574 19.5158 15.3396 18.9899C14.9307 18.0026 12.4666 17.5428 7.58411 17.5428V17.4536C12.4666 17.4536 14.9307 16.9938 15.3396 16.0074C15.5574 15.4807 15.2128 14.7745 14.2861 13.847L14.3495 13.7845C15.2762 14.7111 15.9824 15.0557 16.5091 14.837C17.5001 14.429 17.9563 11.9616 17.9563 7.08284H18.0455C18.0455 11.9642 18.5044 14.429 19.4918 14.837C20.0186 15.0557 20.7247 14.7111 21.6514 13.7845L21.7148 13.847C20.7881 14.7745 20.4435 15.4807 20.6613 16.0074C21.0702 16.9938 23.5343 17.4536 28.4168 17.4536V17.5428C23.5343 17.5428 21.0702 18.0026 20.6613 18.9899C20.4435 19.5158 20.7881 20.2228 21.7148 21.1494L21.6514 21.2128C20.7247 20.2853 20.0186 19.9407 19.4918 20.1594C18.508 20.5683 18.0455 23.0313 18.0455 27.9145ZM16.1859 20.0068C16.3084 20.006 16.4298 20.0297 16.543 20.0764C17.3974 20.4335 17.8616 22.1296 18.0009 25.4907C18.1393 22.127 18.6035 20.4299 19.4579 20.0764C19.89 19.8978 20.4257 20.063 21.0827 20.5808C20.5649 19.9237 20.3998 19.3881 20.5792 18.9551C20.9363 18.1017 22.6326 17.6366 25.9938 17.4982C22.629 17.3598 20.9327 16.8947 20.5792 16.0413C20.4007 15.6083 20.5649 15.0736 21.0827 14.4156C20.4257 14.9343 19.89 15.0995 19.4579 14.92C18.6035 14.5629 18.1393 12.8668 18.0009 9.50568C17.8616 12.8695 17.3974 14.5665 16.543 14.92C16.1109 15.0986 15.5753 14.9343 14.9182 14.4156C15.436 15.0736 15.6011 15.6083 15.4217 16.0413C15.0646 16.8947 13.3683 17.3598 10.0071 17.4982C13.3719 17.6366 15.0682 18.1017 15.4217 18.9551C15.6003 19.3881 15.436 19.9237 14.9182 20.5808C15.4083 20.1969 15.8288 20.0068 16.1895 20.0068H16.1859Z" fill="black"/>
<path d="M18.0455 26.4968H17.9563C17.9563 22.2823 17.5599 20.1585 16.7064 19.8014C16.2538 19.6149 15.6458 19.9121 14.8468 20.7102L14.7834 20.6477C15.5824 19.8488 15.8797 19.2408 15.6922 18.7882C15.3405 17.9383 13.213 17.5384 8.99646 17.5384V17.4491C13.2121 17.4491 15.3351 17.0536 15.6922 16.1993C15.8797 15.7476 15.5824 15.1388 14.7834 14.3407L14.8468 14.2773C15.6529 15.0861 16.26 15.3807 16.7135 15.1941C17.5634 14.837 17.9634 12.715 17.9634 8.4987H18.0527C18.0527 12.7141 18.4482 14.837 19.2981 15.1941C19.7507 15.3816 20.3587 15.0843 21.1577 14.2853L21.2211 14.3487C20.4221 15.1468 20.1248 15.7556 20.3123 16.2073C20.664 17.0581 22.7915 17.4572 27.008 17.4572V17.5464C22.7924 17.5464 20.6694 17.9428 20.3123 18.7962C20.1248 19.2488 20.4221 19.8568 21.2211 20.6558L21.1577 20.7183C20.3587 19.9193 19.7498 19.6229 19.2981 19.8095C18.4446 20.155 18.0455 22.2823 18.0455 26.4968ZM16.4386 19.6595C16.5454 19.6588 16.6513 19.6794 16.7501 19.7202C17.4777 20.0219 17.8795 21.4467 18.0071 24.2641C18.1339 21.4467 18.5357 20.0219 19.2633 19.7202C19.6302 19.5684 20.0828 19.7015 20.6355 20.1264C20.2096 19.5738 20.0766 19.1221 20.2283 18.7552C20.5301 18.0267 21.9559 17.625 24.7725 17.4982C21.9559 17.3715 20.5301 16.9697 20.2283 16.2422C20.0766 15.8744 20.2096 15.4226 20.6355 14.87C20.0828 15.2959 19.6302 15.428 19.2633 15.2762C18.5357 14.9745 18.1339 13.5497 18.0071 10.7323C17.8795 13.5497 17.4777 14.9745 16.7501 15.2762C16.3832 15.428 15.9306 15.2959 15.378 14.87C15.8038 15.4226 15.9368 15.8744 15.7851 16.2422C15.4833 16.9697 14.0576 17.3715 11.2409 17.4982C14.0576 17.625 15.4833 18.0267 15.7851 18.7552C15.9368 19.1221 15.8038 19.5738 15.378 20.1264C15.7815 19.8175 16.1323 19.6595 16.4386 19.6595Z" fill="black"/>
<path d="M18.0455 25.0846H17.9562C17.9562 21.536 17.6232 19.7461 16.9108 19.4506C16.5322 19.2935 16.0225 19.5399 15.3511 20.2148L15.2886 20.1514C15.9591 19.481 16.2091 18.9712 16.0519 18.5927C15.7573 17.8785 13.9664 17.5473 10.4186 17.5473V17.458C13.9664 17.458 15.7573 17.126 16.0519 16.4127C16.2091 16.0342 15.9627 15.5244 15.2886 14.854L15.3511 14.7906C16.0225 15.4619 16.5322 15.711 16.9099 15.5548C17.6241 15.2593 17.9562 13.4694 17.9562 9.92081H18.0455C18.0455 13.4694 18.3776 15.2593 19.0909 15.5548C19.4694 15.711 19.9792 15.4655 20.6497 14.7906L20.7131 14.854C20.0417 15.5244 19.7917 16.0342 19.9489 16.4127C20.2444 17.1268 22.0344 17.458 25.5822 17.458V17.5473C22.0344 17.5473 20.2444 17.8794 19.9489 18.5927C19.7917 18.9712 20.0381 19.4854 20.7131 20.1514L20.6497 20.2148C19.9783 19.5443 19.4685 19.2944 19.0909 19.4506C18.3812 19.7416 18.0455 21.5315 18.0455 25.0846ZM16.6795 19.3167C16.7714 19.3156 16.8625 19.3333 16.9474 19.3685C17.55 19.6184 17.8884 20.7772 18.0035 23.0572C18.1178 20.7772 18.4562 19.6184 19.0588 19.3685C19.3623 19.2426 19.7319 19.3453 20.181 19.6809C19.8453 19.2346 19.7435 18.8614 19.8685 18.5588C20.1185 17.9553 21.2773 17.617 23.5574 17.5027C21.2773 17.3884 20.1185 17.0501 19.8685 16.4466C19.7435 16.144 19.8453 15.7744 20.181 15.3244C19.7346 15.6601 19.3623 15.7628 19.0588 15.6369C18.4562 15.3878 18.1178 14.2291 18.0035 11.9482C17.8884 14.2291 17.55 15.3878 16.9474 15.6369C16.6447 15.7628 16.2742 15.6601 15.8252 15.3244C16.1609 15.7708 16.2626 16.144 16.1376 16.4466C15.8877 17.0501 14.7289 17.3884 12.4487 17.5027C14.7289 17.617 15.8877 17.9553 16.1376 18.5588C16.2626 18.8614 16.1609 19.2319 15.8252 19.6809C16.1519 19.4327 16.4385 19.3122 16.6831 19.3122L16.6795 19.3167Z" fill="black"/>
<path d="M18.0455 23.6624H17.9563C17.9563 20.7816 17.6884 19.3283 17.1108 19.0899C16.8064 18.9641 16.3966 19.1667 15.8529 19.7095L15.7895 19.6461C16.3323 19.1033 16.535 18.6918 16.4091 18.3874C16.1698 17.8116 14.7173 17.5428 11.8354 17.5428V17.4536C14.7173 17.4536 16.1698 17.1858 16.4091 16.6091C16.535 16.3046 16.3323 15.8949 15.7895 15.3503L15.8529 15.2869C16.3957 15.8297 16.8064 16.0324 17.1108 15.9065C17.6884 15.6681 17.9563 14.2148 17.9563 11.3367H18.0455C18.0455 14.2175 18.3134 15.6708 18.8901 15.9092C19.1936 16.0359 19.6043 15.8324 20.148 15.2896L20.2114 15.353C19.6686 15.8958 19.4659 16.3073 19.5918 16.6117C19.8311 17.1875 21.2836 17.4563 24.1654 17.4563V17.5455C21.2836 17.5455 19.8311 17.8133 19.5918 18.39C19.4659 18.6945 19.6686 19.1042 20.2114 19.6488L20.148 19.7122C19.6061 19.1694 19.1945 18.9667 18.8901 19.0926C18.3134 19.3283 18.0455 20.7816 18.0455 23.6624ZM16.9269 18.965C17.0016 18.9645 17.0757 18.9791 17.1447 19.0078C17.625 19.206 17.9 20.1041 18.0009 21.8645C18.1018 20.1076 18.3759 19.2096 18.8562 19.0078C19.0954 18.9078 19.3847 18.9819 19.7329 19.231C19.4838 18.8819 19.4106 18.5927 19.5097 18.3534C19.7088 17.874 20.6069 17.5991 22.3665 17.4982C20.6096 17.3973 19.7114 17.1224 19.5097 16.643C19.4106 16.4037 19.4838 16.1145 19.7329 15.7654C19.3847 16.0154 19.0945 16.0886 18.8562 15.9895C18.3759 15.7904 18.1018 14.8924 18.0009 13.1328C17.9 14.8897 17.625 15.7878 17.1447 15.9895C16.9064 16.0877 16.6162 16.0154 16.268 15.7654C16.5171 16.1145 16.5903 16.4037 16.4912 16.643C16.293 17.1224 15.394 17.3973 13.6344 17.4982C15.3904 17.5991 16.2895 17.874 16.4912 18.3534C16.5903 18.5927 16.5171 18.8819 16.268 19.231C16.5198 19.0533 16.7385 18.965 16.9305 18.965H16.9269Z" fill="black"/>
<path d="M18.0455 22.2457H17.9563C17.9563 20.0317 17.7509 18.9158 17.3117 18.7337C17.0814 18.6382 16.768 18.7935 16.3537 19.2078L16.2904 19.1453C16.7055 18.7302 16.8608 18.4168 16.7653 18.1874C16.5868 17.7473 15.4672 17.5428 13.2532 17.5428V17.4536C15.4672 17.4536 16.5832 17.2491 16.7653 16.809C16.8608 16.5796 16.7055 16.2663 16.2904 15.8511L16.3537 15.7886C16.768 16.2029 17.0814 16.3582 17.3117 16.2636C17.7509 16.085 17.9563 14.9656 17.9563 12.7507H18.0455C18.0455 14.9656 18.25 16.0815 18.6892 16.2636C18.9196 16.3582 19.2329 16.2029 19.6472 15.7886L19.7105 15.8511C19.2954 16.2663 19.1401 16.5796 19.2356 16.809C19.4142 17.2491 20.5337 17.4536 22.7477 17.4536V17.5428C20.5337 17.5428 19.4177 17.7473 19.2356 18.1874C19.1401 18.4168 19.2954 18.7302 19.7105 19.1453L19.6472 19.2078C19.2329 18.7935 18.9187 18.6382 18.6892 18.7337C18.2536 18.9158 18.0455 20.0317 18.0455 22.2457ZM17.1742 18.6177C17.233 18.6173 17.2912 18.6285 17.3456 18.6507C17.7027 18.7989 17.9152 19.4452 18.0009 20.6968C18.0857 19.447 18.2973 18.7989 18.6553 18.6507C18.8339 18.5775 19.0437 18.6239 19.2945 18.7926C19.1258 18.5409 19.0803 18.3302 19.1535 18.1535C19.3017 17.7964 19.9471 17.5839 21.1997 17.4982C19.9498 17.4089 19.3017 17.2018 19.1535 16.8438C19.0803 16.6653 19.1258 16.4555 19.2945 16.2047C19.0428 16.3725 18.8321 16.4189 18.6553 16.3457C18.2982 16.1975 18.0857 15.5521 18.0009 14.2996C17.9116 15.5494 17.7036 16.1975 17.3456 16.3457C17.1671 16.4189 16.9573 16.3725 16.7064 16.2047C16.8751 16.4555 16.9207 16.6671 16.8474 16.8438C16.6992 17.2009 16.0538 17.4125 14.8012 17.4982C16.0511 17.5875 16.6992 17.7955 16.8474 18.1535C16.9207 18.332 16.8751 18.5409 16.7064 18.7926C16.8427 18.6889 17.0068 18.628 17.1778 18.6177H17.1742Z" fill="black"/>
<path d="M18.0455 20.8281H17.9563C17.9563 19.281 17.8152 18.507 17.5099 18.3767C17.3545 18.3124 17.1394 18.4204 16.8528 18.707L16.7894 18.6445C17.0769 18.357 17.184 18.1419 17.1197 17.9865C16.9948 17.6839 16.2154 17.5402 14.6682 17.5402V17.4509C16.2154 17.4509 16.9948 17.3098 17.1197 17.0045C17.1849 16.8492 17.0769 16.6341 16.7894 16.3475L16.8528 16.2841C17.1394 16.5707 17.3545 16.6787 17.5099 16.6144C17.8134 16.4885 17.9563 15.7101 17.9563 14.163H18.0455C18.0455 15.7101 18.1866 16.4885 18.4919 16.6144C18.6473 16.6787 18.8624 16.5707 19.149 16.2841L19.2124 16.3475C18.9258 16.6341 18.8178 16.8492 18.8821 17.0045C19.0071 17.3072 19.7864 17.4509 21.3336 17.4509V17.5402C19.7864 17.5402 19.0071 17.6812 18.8821 17.9865C18.8178 18.1419 18.9258 18.357 19.2124 18.6445L19.149 18.707C18.8624 18.4204 18.6473 18.3124 18.4919 18.3767C18.1902 18.5025 18.0455 19.2819 18.0455 20.8281ZM17.4206 18.2695C17.4638 18.2696 17.5065 18.2781 17.5465 18.2945C17.7875 18.3945 17.9331 18.7855 18.0009 19.5541C18.0679 18.7855 18.2134 18.3936 18.4544 18.2945C18.5714 18.2463 18.7071 18.2686 18.866 18.3633C18.7714 18.2044 18.749 18.0687 18.7973 17.9526C18.8964 17.7116 19.2883 17.5652 20.0569 17.4982C19.2883 17.4313 18.8964 17.2849 18.7973 17.0438C18.749 16.9278 18.7714 16.7921 18.866 16.6332C18.7071 16.7278 18.5714 16.7501 18.4544 16.7019C18.2134 16.6019 18.0679 16.2109 18.0009 15.4423C17.9331 16.2109 17.7875 16.6028 17.5465 16.7019C17.4304 16.7501 17.2938 16.7278 17.1358 16.6332C17.2251 16.7921 17.2528 16.9278 17.2046 17.0438C17.1046 17.2849 16.7126 17.4313 15.9449 17.4982C16.7126 17.5652 17.1055 17.7116 17.2046 17.9526C17.2528 18.0687 17.2296 18.2044 17.1358 18.3633C17.2206 18.3069 17.319 18.2746 17.4206 18.2695V18.2695Z" fill="black"/>
<path d="M18.0455 19.4113H17.9562C17.9562 19.0917 17.9562 18.1213 17.7125 18.0205C17.6321 17.9874 17.5125 18.0499 17.3554 18.2061L17.2929 18.1428C17.4491 17.9865 17.5116 17.8669 17.4777 17.7857C17.3777 17.5429 16.4064 17.5429 16.0876 17.5429V17.4536C16.4064 17.4536 17.3777 17.4536 17.4777 17.2108C17.5116 17.1304 17.4491 17.0099 17.2929 16.8537L17.3554 16.7903C17.5116 16.9465 17.6321 17.0099 17.7125 16.976C17.9562 16.8751 17.9562 15.9047 17.9562 15.5851H18.0455C18.0455 15.9047 18.0455 16.8751 18.2883 16.976C18.3687 17.0099 18.4883 16.9465 18.6454 16.7903L18.7079 16.8537C18.5517 17.0099 18.4892 17.1304 18.5231 17.2108C18.6231 17.4536 19.5944 17.4536 19.9131 17.4536V17.5429C19.5944 17.5429 18.6231 17.5429 18.5231 17.7857C18.4892 17.8669 18.5517 17.9865 18.7079 18.1428L18.6454 18.2061C18.4883 18.0499 18.3687 17.9874 18.2883 18.0205C18.0455 18.1213 18.0455 19.0917 18.0455 19.4113ZM17.6661 17.9223C17.6936 17.9222 17.721 17.9277 17.7464 17.9383C17.8723 17.9901 17.9544 18.1695 18.0008 18.5097C18.0464 18.1695 18.1285 17.9901 18.2544 17.9383C18.286 17.9261 18.3199 17.9207 18.3537 17.9226C18.3876 17.9244 18.4207 17.9334 18.4508 17.949C18.4354 17.9187 18.4265 17.8855 18.4246 17.8515C18.4228 17.8176 18.4281 17.7836 18.4401 17.7517C18.4919 17.6268 18.6722 17.5437 19.0123 17.4982C18.6722 17.4527 18.4919 17.3706 18.4401 17.2447C18.4281 17.2129 18.4228 17.1789 18.4246 17.1449C18.4265 17.1109 18.4354 17.0777 18.4508 17.0474C18.4207 17.063 18.3876 17.0721 18.3537 17.0739C18.3199 17.0758 18.286 17.0704 18.2544 17.0581C18.1285 17.0063 18.0464 16.8269 18.0008 16.4868C17.9544 16.8269 17.8723 17.0063 17.7464 17.0581C17.7148 17.0703 17.6809 17.0757 17.647 17.0739C17.6132 17.072 17.5801 17.063 17.55 17.0474C17.5654 17.0777 17.5743 17.1109 17.5762 17.1449C17.578 17.1789 17.5727 17.2129 17.5607 17.2447C17.5089 17.3706 17.3286 17.4527 16.9884 17.4982C17.3286 17.5437 17.5089 17.6268 17.5607 17.7517C17.5727 17.7836 17.578 17.8176 17.5762 17.8515C17.5743 17.8855 17.5654 17.9187 17.55 17.949C17.5875 17.9317 17.6283 17.9226 17.6696 17.9223H17.6661Z" fill="black"/>
</svg>
